<svg xmlns="http://www.w3.org/2000/svg" viewBox="0 0 800 420"><rect width="800" height="420" rx="40" fill="#f4eee4"/><path d="M45 90 C160 170 310 50 440 130 S680 70 755 110" fill="none" stroke="#122a1f" stroke-width="6"/><circle cx="80" cy="150" r="9" fill="#f4b03e"/><circle cx="80" cy="150" r="4" fill="#fff7dc"/><circle cx="120" cy="185" r="9" fill="#f4b03e"/><circle cx="120" cy="185" r="4" fill="#fff7dc"/><circle cx="160" cy="150" r="9" fill="#f4b03e"/><circle cx="160" cy="150" r="4" fill="#fff7dc"/><circle cx="200" cy="185" r="9" fill="#f4b03e"/><circle cx="200" cy="185" r="4" fill="#fff7dc"/><circle cx="240" cy="150" r="9" fill="#f4b03e"/><circle cx="240" cy="150" r="4" fill="#fff7dc"/><circle cx="280" cy="185" r="9" fill="#f4b03e"/><circle cx="280" cy="185" r="4" fill="#fff7dc"/><circle cx="320" cy="150" r="9" fill="#f4b03e"/><circle cx="320" cy="150" r="4" fill="#fff7dc"/><circle cx="360" cy="185" r="9" fill="#f4b03e"/><circle cx="360" cy="185" r="4" fill="#fff7dc"/><circle cx="400" cy="150" r="9" fill="#f4b03e"/><circle cx="400" cy="150" r="4" fill="#fff7dc"/><circle cx="440" cy="185" r="9" fill="#f4b03e"/><circle cx="440" cy="185" r="4" fill="#fff7dc"/><circle cx="480" cy="150" r="9" fill="#f4b03e"/><circle cx="480" cy="150" r="4" fill="#fff7dc"/><circle cx="520" cy="185" r="9" fill="#f4b03e"/><circle cx="520" cy="185" r="4" fill="#fff7dc"/><circle cx="560" cy="150" r="9" fill="#f4b03e"/><circle cx="560" cy="150" r="4" fill="#fff7dc"/><circle cx="600" cy="185" r="9" fill="#f4b03e"/><circle cx="600" cy="185" r="4" fill="#fff7dc"/><circle cx="640" cy="150" r="9" fill="#f4b03e"/><circle cx="640" cy="150" r="4" fill="#fff7dc"/><circle cx="680" cy="185" r="9" fill="#f4b03e"/><circle cx="680" cy="185" r="4" fill="#fff7dc"/><circle cx="720" cy="150" r="9" fill="#f4b03e"/><circle cx="720" cy="150" r="4" fill="#fff7dc"/><text x="400" y="290" text-anchor="middle" font-family="Arial,sans-serif" font-weight="bold" font-size="44" fill="#122a1f">LLinks LED</text><text x="400" y="338" text-anchor="middle" font-family="Arial,sans-serif" font-size="22" fill="#59665f">Šiltai balta · apšvietimo schema</text></svg>